<?xml version="1.0" encoding="UTF-8" standalone="no"?>
<svg
   xmlns:dc="http://purl.org/dc/elements/1.1/"
   xmlns:cc="http://creativecommons.org/ns#"
   xmlns:rdf="http://www.w3.org/1999/02/22-rdf-syntax-ns#"
   xmlns:svg="http://www.w3.org/2000/svg"
   xmlns="http://www.w3.org/2000/svg"
   xmlns:sodipodi="http://sodipodi.sourceforge.net/DTD/sodipodi-0.dtd"
   xmlns:inkscape="http://www.inkscape.org/namespaces/inkscape"
   width="134.87401mm"
   height="60.198002mm"
   viewBox="0 0 134.87401 60.198002"
   version="1.1"
   id="svg8"
   inkscape:version="1.0.1 (3bc2e813f5, 2020-09-07)"
   sodipodi:docname="guide_culinaire_titre.svg">
  <defs
     id="defs2" />
  <sodipodi:namedview
     id="base"
     pagecolor="#ffffff"
     bordercolor="#666666"
     borderopacity="1.0"
     inkscape:pageopacity="0.0"
     inkscape:pageshadow="2"
     inkscape:zoom="1.4"
     inkscape:cx="313.03102"
     inkscape:cy="190.62987"
     inkscape:document-units="mm"
     inkscape:current-layer="layer1"
     inkscape:document-rotation="0"
     showgrid="false"
     fit-margin-top="0"
     fit-margin-left="0"
     fit-margin-right="0"
     fit-margin-bottom="0"
     inkscape:window-width="1920"
     inkscape:window-height="990"
     inkscape:window-x="-11"
     inkscape:window-y="-11"
     inkscape:window-maximized="1"
     inkscape:snap-global="false" />
  <metadata
     id="metadata5">
    <rdf:RDF>
      <cc:Work
         rdf:about="">
        <dc:format>image/svg+xml</dc:format>
        <dc:type
           rdf:resource="http://purl.org/dc/dcmitype/StillImage" />
        <dc:title></dc:title>
      </cc:Work>
    </rdf:RDF>
  </metadata>
  <g
     inkscape:label="Layer 1"
     inkscape:groupmode="layer"
     id="layer1"
     transform="translate(-34.524059,-119.17207)">
    <path
       style="fill:#000000;fill-opacity:1;stroke:#000000;stroke-width:0.264583px;stroke-linecap:butt;stroke-linejoin:miter;stroke-opacity:1"
       d="m 41.727278,123.5435 h -2.864795 c 0,0 0.50113,0.0835 0.50113,0.85192 v 12.05219 c 0,0.98555 -0.726639,1.37811 -0.726639,1.37811 h 7.425082 c 1.227769,0 1.194361,0.69323 1.194361,0.69323 l 1.102486,-3.69166 -0.02506,-0.28398 -0.258917,0.008 c 0,0 -0.358868,1.76703 -2.647363,2.31827 -2.288496,0.55125 -3.102566,0.89225 -3.703922,-0.51091 0,0 0.01199,-10.17171 0.02869,-11.00275 0.0167,-0.83104 0.618421,-1.82857 0.618421,-1.82857 z"
       id="path861"
       sodipodi:nodetypes="ccsscscccccc" />
    <path
       id="path863"
       style="fill:#000000;fill-opacity:1;stroke:#000000;stroke-width:0.999999px;stroke-linecap:butt;stroke-linejoin:miter;stroke-opacity:1"
       d="m 116.83008,94.552734 c -8.97322,0 -15.36914,9.410626 -15.36914,17.224606 0,5.54484 -1.505586,21.125 11.97656,21.125 13.48215,0 14.97852,-12.1582 14.97852,-12.1582 0,0 -2.77733,5.24151 -10.16407,5.11524 -7.38674,-0.12624 -10.48409,-6.95284 -10.43945,-9.56446 0.0446,-2.61158 0,-5.08984 0,-5.08984 h 20.33398 c 0,0 0.8711,-16.607709 -11.3164,-16.652346 z m -2.09766,2.367188 c 5.17857,-0.223219 5.625,11.695308 5.625,11.695308 l -12.36719,0.0898 c 0,0 1.56362,-11.561788 6.74219,-11.785158 z"
       transform="matrix(0.26458333,0,0,0.26458333,23.719994,102.78)" />
    <path
       style="fill:#000000;fill-opacity:1;stroke:#000000;stroke-width:0.264583px;stroke-linecap:butt;stroke-linejoin:miter;stroke-opacity:1"
       d="m 74.050186,127.16834 -0.317381,-0.0334 c 0,0 -0.267271,-3.0402 -2.438836,-3.0402 -2.171566,0 -3.056896,1.93771 -3.056896,7.24969 0,5.31198 1.035669,6.28083 2.622585,6.28083 1.586912,0 2.204971,-0.51783 2.204971,-3.35757 v -4.81085 c 0,-0.41761 -0.421171,-1.15796 -1.00226,-1.00226 -0.08389,0.0225 -0.05429,-0.28815 -0.05429,-0.28815 h 4.426654 v 0.43014 c 0,0 -1.026496,-0.40948 -1.026496,1.5867 v 5.74052 c 0,0 -0.07124,1.27833 0.73805,1.27833 0.0622,0 0.01791,0.2572 0.01791,0.2572 0,0 -1.996189,0.89769 -5.055434,0.89769 0,0 -5.480659,-1.19299 -5.480659,-5.25623 0,-4.68927 0.212615,-7.59495 4.015997,-9.22498 2.041399,-0.87489 5.835008,0.16536 5.835008,0.16536 l 0.08268,0.37798 z"
       id="path839"
       sodipodi:nodetypes="ccsssssscccscsccssccc" />
    <path
       style="fill:#000000;fill-opacity:1;stroke:#000000;stroke-width:0.264583px;stroke-linecap:butt;stroke-linejoin:miter;stroke-opacity:1"
       d="m 78.668282,129.02572 c 0,0 0.735647,0.005 2.848747,-1.24767 0.174157,0.0467 0.158692,0.0501 0.158692,0.0501 v 6.28918 c 0,1.26953 -0.442666,2.43048 1.127543,2.43048 1.570207,0 1.620322,-0.4009 1.620322,-0.4009 v -5.55024 c 0,-1.01582 -0.770742,-1.32292 -0.770742,-1.32292 l 0.0118,-0.23624 c 0,0 1.326878,0.0852 2.91379,-1.18431 l 0.200454,0.0334 c 0,0 -0.183748,6.66503 -0.183748,7.93457 0,1.26952 0.643117,1.65373 0.643117,1.65373 l 0.01251,0.31738 c 0,0 -1.348521,-0.0213 -2.830189,0.37571 -0.09455,0.0253 -0.02363,-0.15355 -0.02363,-0.15355 v -1.46466 c 0,0 -1.689081,1.26386 -3.508092,1.50009 -1.81901,0.23624 -1.441034,-0.96856 -1.441034,-4.28767 v -3.72909 c 0,-0.46772 -0.755952,-0.8332 -0.755952,-0.8332 z"
       id="path841"
       sodipodi:nodetypes="cccsscsccccsccsccssscc" />
    <path
       id="path845"
       style="fill:#000000;fill-opacity:1;stroke:#000000;stroke-width:0.999999px;stroke-linecap:butt;stroke-linejoin:miter;stroke-opacity:1"
       d="m 257.71289,78.75 a 5.4719834,5.4719834 0 0 0 -5.33398,5.470703 5.4719834,5.4719834 0 0 0 5.4707,5.472656 5.4719834,5.4719834 0 0 0 5.47266,-5.472656 5.4719834,5.4719834 0 0 0 -5.47266,-5.470703 5.4719834,5.4719834 0 0 0 -0.13672,0 z m 3.19141,15.888672 c 0,0 -2.28775,3.584702 -10.60742,4.513672 -0.31571,0.03401 -0.47266,0.853516 -0.47266,0.853516 0,0 3.39294,-0.06368 3.55078,4.71875 0.15783,4.78246 -0.21289,20.44715 -0.21289,23.76172 0,3.31457 -3.35547,3.59961 -3.35547,3.59961 v 1.08008 h 13.93164 v -1.51368 c 0,0 -2.29883,0.014 -2.29883,-3.14257 0,-3.1567 0.44336,-33.744145 0.44336,-33.744145 z"
       transform="matrix(0.26458333,0,0,0.26458333,23.719994,102.78)" />
    <path
       id="path851"
       style="fill:#000000;fill-opacity:1;stroke:#000000;stroke-width:0.999999px;stroke-linecap:butt;stroke-linejoin:miter;stroke-opacity:1"
       d="m 302.35547,77.746094 -1.21485,0.04492 c 0,0 -3.37218,4.351562 -11.36328,4.351562 -0.26872,1.002671 -0.22265,1.027344 -0.22265,1.027344 0,0 3.92773,-0.04488 3.92773,2.767578 0,3.214299 0.17969,10.759766 0.17969,10.759766 h -0.002 c 0,0 -0.4467,-1.742188 -5.98243,-1.742188 -5.53571,0 -14.82031,6.384784 -14.82031,22.009764 0,15.62502 9.37555,16.69532 11.33985,16.69532 1.96428,0 4.69142,-0.31983 6.63281,-2.49805 1.94139,-2.17814 2.49219,-2.03711 2.49219,-2.03711 l -0.0293,4.67188 1.2168,0.043 c 0,0 3.57253,-2.14257 9.86718,-2.14257 0.34885,-0.60405 0.34766,-0.60547 0.34766,-0.60547 0,0 -3.08203,-0.59318 -3.08203,-2.01368 0,-1.42053 0.71289,-51.332028 0.71289,-51.332028 z m -13.86133,19.449218 c 3.85119,0 5.01758,2.745776 5.01758,8.996098 v 16.79882 c 0,2.36606 -0.43164,4.41993 -0.43164,4.41993 0,0 -3.81587,2.83451 -6.69531,-0.0449 -2.87948,-2.87947 -4.46485,-5.53406 -4.46485,-14.10546 0,-8.57144 1.42876,-16.064458 6.57422,-16.064458 z"
       transform="matrix(0.26458333,0,0,0.26458333,23.719994,102.78)" />
    <path
       id="path856"
       style="fill:#000000;fill-opacity:1;stroke:#000000;stroke-width:0.264583px;stroke-linecap:butt;stroke-linejoin:miter;stroke-opacity:1"
       d="m 110.93254,127.79708 c -2.37416,0 -4.06642,2.48989 -4.06642,4.55734 0,1.46707 -0.39835,5.58932 3.1688,5.58932 3.56715,0 3.96307,-3.21685 3.96307,-3.21685 0,0 -0.73484,1.38681 -2.68925,1.3534 -1.95441,-0.0334 -2.77391,-1.8396 -2.7621,-2.53059 0.0118,-0.69098 0,-1.34669 0,-1.34669 h 5.38003 c 0,0 0.23048,-4.39412 -2.99413,-4.40593 z m -0.55501,0.62632 c 1.37017,-0.0591 1.48829,3.09438 1.48829,3.09438 l -3.27216,0.0238 c 0,0 0.41371,-3.05906 1.78387,-3.11816 z" />
    <path
       style="fill:#000000;fill-opacity:1;stroke:#000000;stroke-width:0.264583px;stroke-linecap:butt;stroke-linejoin:miter;stroke-opacity:1"
       d="m 97.644418,152.67907 c 0,0 0.735647,0.005 2.848752,-1.24767 0.17415,0.0467 0.15869,0.0501 0.15869,0.0501 v 6.28918 c 0,1.26953 -0.44267,2.43048 1.12754,2.43048 1.57021,0 1.62032,-0.4009 1.62032,-0.4009 v -5.55024 c 0,-1.01582 -0.77074,-1.32292 -0.77074,-1.32292 l 0.0118,-0.23624 c 0,0 1.32688,0.0852 2.91379,-1.18431 l 0.20045,0.0334 c 0,0 -0.18374,6.66503 -0.18374,7.93457 0,1.26952 0.64311,1.65373 0.64311,1.65373 l 0.0125,0.31738 c 0,0 -1.34852,-0.0213 -2.83019,0.37571 -0.0945,0.0253 -0.0236,-0.15355 -0.0236,-0.15355 v -1.46466 c 0,0 -1.68908,1.26386 -3.508088,1.50009 -1.81901,0.23624 -1.441034,-0.96856 -1.441034,-4.28767 v -3.72909 c 0,-0.46772 -0.755952,-0.8332 -0.755952,-0.8332 z"
       id="path860"
       sodipodi:nodetypes="cccsscsccccsccsccssscc" />
    <path
       id="path866"
       style="fill:#000000;fill-opacity:1;stroke:#000000;stroke-width:0.264583px;stroke-linecap:butt;stroke-linejoin:miter;stroke-opacity:1"
       d="m 117.50261,147.07408 a 1.4477956,1.4477956 0 0 0 -1.41128,1.44746 1.4477956,1.4477956 0 0 0 1.44745,1.44797 1.4477956,1.4477956 0 0 0 1.44798,-1.44797 1.4477956,1.4477956 0 0 0 -1.44798,-1.44746 1.4477956,1.4477956 0 0 0 -0.0362,0 z m 0.84439,4.20388 c 0,0 -0.6053,0.94845 -2.80655,1.19424 -0.0835,0.009 -0.12505,0.22583 -0.12505,0.22583 0,0 0.89771,-0.0169 0.93947,1.2485 0.0418,1.26536 -0.0563,5.40998 -0.0563,6.28696 0,0.87698 -0.8878,0.95239 -0.8878,0.95239 v 0.28577 h 3.68608 v -0.40049 c 0,0 -0.60824,0.004 -0.60824,-0.83147 0,-0.83521 0.11731,-8.92814 0.11731,-8.92814 z" />
    <path
       id="path868"
       style="fill:#000000;fill-opacity:1;stroke:#000000;stroke-width:0.264583px;stroke-linecap:butt;stroke-linejoin:miter;stroke-opacity:1"
       d="m 145.94532,147.07408 a 1.4477956,1.4477956 0 0 0 -1.41128,1.44746 1.4477956,1.4477956 0 0 0 1.44745,1.44797 1.4477956,1.4477956 0 0 0 1.44798,-1.44797 1.4477956,1.4477956 0 0 0 -1.44798,-1.44746 1.4477956,1.4477956 0 0 0 -0.0362,0 z m 0.84439,4.20388 c 0,0 -0.6053,0.94845 -2.80655,1.19424 -0.0835,0.009 -0.12505,0.22583 -0.12505,0.22583 0,0 0.89771,-0.0169 0.93947,1.2485 0.0418,1.26536 -0.0563,5.40998 -0.0563,6.28696 0,0.87698 -0.8878,0.95239 -0.8878,0.95239 v 0.28577 h 3.68608 v -0.40049 c 0,0 -0.60824,0.004 -0.60824,-0.83147 0,-0.83521 0.11731,-8.92814 0.11731,-8.92814 z" />
    <path
       id="path870"
       style="fill:#000000;fill-opacity:1;stroke:#000000;stroke-width:0.264583px;stroke-linecap:butt;stroke-linejoin:miter;stroke-opacity:1"
       d="m 163.18373,151.18316 c -2.37416,0 -4.06642,2.48989 -4.06642,4.55734 0,1.46707 -0.39835,5.58932 3.1688,5.58932 3.56715,0 3.96307,-3.21685 3.96307,-3.21685 0,0 -0.73484,1.38681 -2.68925,1.3534 -1.95441,-0.0334 -2.77391,-1.8396 -2.7621,-2.53059 0.0118,-0.69098 0,-1.34669 0,-1.34669 h 5.38003 c 0,0 0.23048,-4.39412 -2.99413,-4.40593 z m -0.55501,0.62632 c 1.37017,-0.0591 1.48829,3.09438 1.48829,3.09438 l -3.27216,0.0238 c 0,0 0.41371,-3.05906 1.78387,-3.11816 z" />
    <path
       style="fill:#000000;fill-opacity:1;stroke:#000000;stroke-width:0.264583px;stroke-linecap:butt;stroke-linejoin:miter;stroke-opacity:1"
       d="m 93.811428,150.77158 -0.434313,-0.0167 c 0,0 -0.150339,-2.93997 -2.305201,-2.93997 -2.15486,0 -3.023487,3.55803 -2.756218,6.61493 0.267272,3.05689 1.469983,4.6438 3.257349,4.76073 1.787364,0.11693 3.549012,-1.54496 3.743907,-3.00372 0.147667,-0.25576 0.206706,-0.24804 0.206706,-0.24804 0,0 -0.342474,3.60256 -1.612006,4.73845 -1.269529,1.1359 -3.407685,1.50339 -4.877668,0.68488 -1.469982,-0.81851 -3.140416,-2.6894 -3.073601,-5.16164 0.06682,-2.47225 0.467723,-5.11153 2.204974,-7.18287 1.737252,-2.07134 4.972325,-2.54594 6.921265,-1.67187 -0.932985,1.61597 -1.275194,3.42583 -1.275194,3.42583 z"
       id="path872" />
    <path
       style="opacity:0.999;fill:#000000;fill-opacity:1;stroke:#000000;stroke-width:0.264583px;stroke-linecap:butt;stroke-linejoin:miter;stroke-opacity:1"
       d="m 109.14602,148.33275 c 0,0 0.7851,0.0668 0.7851,0.73499 0,0.66818 0,10.64067 0,11.55941 0,0.91874 -0.86863,0.71829 -0.86863,0.71829 v 0.35079 h 3.8253 v -0.3675 c 0,0 -0.73499,0.0334 -0.73499,-0.58465 0,-0.61806 0,-13.4692 0,-13.4692 h -0.38798 c 0,0 -0.62011,0.9036 -2.51,0.85045 -0.11835,0.20499 -0.1088,0.20742 -0.1088,0.20742 z"
       id="path874" />
    <path
       style="fill:#000000;fill-opacity:1;stroke:#000000;stroke-width:0.264583px;stroke-linecap:butt;stroke-linejoin:miter;stroke-opacity:1"
       d="m 121.91126,152.82241 c 0,0 0.0131,-0.13565 0.0386,-0.47227 1.11083,0 2.75621,-1.11919 2.75621,-1.11919 v 1.75396 c 0.92194,-0.53228 2.72281,-1.7122 3.80859,-1.7122 1.33635,-0.008 1.19437,0.95215 1.19437,0.95215 v 8.11831 c 0,0.85193 0.7851,0.66818 0.7851,0.66818 v 0.47308 h -3.87016 v -0.30711 c 0,0 0.87407,-0.12993 0.87407,-1.18117 v -5.8232 c 0,-1.11031 -0.42522,-1.27569 -1.39379,-1.29929 -0.96856,-0.0236 -1.41741,0.49609 -1.41741,0.49609 0,0 0.0591,6.23661 0.0591,6.9335 0,0.69689 0.82683,0.85045 0.82683,0.85045 v 0.27167 h -3.67346 c 0,0 0.0177,-0.006 -0.15355,-0.17718 0.98037,-0.31892 0.81501,-1.01581 0.81501,-1.01581 v 0 -6.82151 c 0,-0.7851 -0.64951,-0.58846 -0.64951,-0.58846 z"
       id="path878"
       sodipodi:nodetypes="ccccccsccssccccscccccc" />
    <path
       id="path884"
       style="fill:#000000;fill-opacity:1;stroke:#000000;stroke-width:0.999999px;stroke-linecap:butt;stroke-linejoin:miter;stroke-opacity:1"
       d="m 430.26758,182.90234 c -9.6875,-0.1339 -15.09447,6.56382 -15.2207,9.15235 -0.12628,2.58852 1.072,5.68359 5.17578,5.68359 4.10373,0 4.86132,-5.30469 4.86132,-5.30469 0,0 0.82184,-7.57617 4.16797,-7.57617 3.34606,0 3.0293,1.83203 3.0293,1.83203 l -0.0547,11.30078 c 0,0 -0.30636,-0.44559 -7.44922,2.32227 -7.14285,2.76786 -12.94726,7.0536 -12.94726,12.8125 0,5.75894 5.51312,9.01758 10.26758,9.01758 4.75449,0 10.15625,-6.02735 10.15625,-6.02735 0,0 0.75177,1.71679 1.47461,2.96875 0.72283,1.25197 1.34723,2.43946 4.69336,2.43946 3.34612,0 7.18164,-2.60352 7.18164,-2.60352 v -1.42773 h -2.81641 c -0.30652,0 -2.02734,-1.06749 -2.02734,-7.57031 v -17.68946 c 0,-7.81251 -0.8047,-9.19628 -10.49219,-9.33008 z m 1.81054,17.19727 c 0.26081,0.002 0.20313,0.0996 0.20313,0.0996 v 13.70117 c 0,0 -0.47182,2.65039 -5.99609,2.65039 -5.52427,0 -5.42969,-6.21875 -5.42969,-6.21875 0,0 -0.79004,-6.28187 5.52344,-8.55469 3.94589,-1.42053 5.26454,-1.68143 5.69921,-1.67773 z"
       transform="matrix(0.26458333,0,0,0.26458333,23.719994,102.78)" />
    <path
       style="fill:#000000;fill-opacity:1;stroke:#000000;stroke-width:0.264583px;stroke-linecap:butt;stroke-linejoin:miter;stroke-opacity:1"
       d="m 150.12177,152.42532 -0.0334,0.26726 c 0,0 0.7684,0.23386 0.7684,0.98556 0,0.7517 0,5.33704 0,6.48964 0,1.1526 -0.95215,0.86862 -0.95215,0.86862 v 0.33409 h 3.83365 v -0.35914 c 0,0 -0.8561,0 -0.8561,-0.8561 0,-0.8561 0,-5.93422 0,-5.93422 0,0 0.35497,-0.49278 1.26535,-0.47607 0.91039,0.0167 0.74335,0.45102 1.56186,0.47607 0.81851,0.0251 1.29447,-0.39653 1.29447,-1.59542 0,-1.19889 -0.67327,-1.26386 -1.5001,-1.26386 -0.82682,0 -2.56315,2.43913 -2.55724,2.41551 0.006,-0.0236 0.065,-2.32102 0.065,-2.32102 h -0.37797 z"
       id="path889" />
  </g>
</svg>
